<svg width="103" height="103" viewBox="0 0 103 103" version="2.0" xmlns="http://www.w3.org/2000/svg" xmlns:xlink="http://www.w3.org/1999/xlink" xmlns:figma="http://www.figma.com/figma/ns">
	<title>Play</title>
	<g id="Canvas" transform="translate(591 11531)" figma:type="canvas">
		<g id="Play" style="mix-blend-mode:normal;" figma:type="group">
			<g id="Ellipse" style="mix-blend-mode:normal;" figma:type="ellipse">
				<use xlink:href="#path0_fill" transform="translate(-583 -11523)" fill="#FFFFFF" fill-opacity="0.31" style="mix-blend-mode:normal;"/>
			</g>
			<g id="Ellipse" style="mix-blend-mode:normal;" filter="url(#filter0_d)" figma:type="ellipse">
				<mask id="mask0_outline_ins">
					<use xlink:href="#path0_fill" fill="white" transform="translate(-583 -11523)"/>
				</mask>
				<g mask="url(#mask0_outline_ins)">
					<use xlink:href="#path1_stroke_2x" transform="translate(-583 -11523)" fill="#FFFFFF" style="mix-blend-mode:normal;"/>
				</g>
			</g>
			<g id="Polygon" style="mix-blend-mode:normal;" filter="url(#filter1_d)" figma:type="regular-polygon">
				<use xlink:href="#path2_fill" transform="matrix(6.12323e-17 1 -1 6.12323e-17 -517.75 -11501.2)" fill="#FFFFFF" style="mix-blend-mode:normal;"/>
			</g>
		</g>
	</g>
	<defs>
		<filter id="filter0_d" filterUnits="userSpaceOnUse" x="-591" y="-11531" width="103" height="103" color-interpolation-filters="sRGB">
			<feFlood flood-opacity="0" result="BackgroundImageFix"/>
			<desc>type="dropShadow" x="0" y="0" size="8" spread="0" color="0,0,0,0.52" blend="normal"</desc>
			<feColorMatrix in="SourceAlpha" type="matrix" values="0 0 0 0 0 0 0 0 0 0 0 0 0 0 0 0 0 0 255 0"/>
			<feOffset dx="0" dy="0"/>
			<feGaussianBlur stdDeviation="4"/>
			<feColorMatrix type="matrix" values="0 0 0 0 0 0 0 0 0 0 0 0 0 0 0 0 0 0 0.52 0"/>
			<feBlend mode="normal" in2="BackgroundImageFix" result="effect1_dropShadow"/>
			<feBlend mode="normal" in="SourceGraphic" in2="effect1_dropShadow" result="shape"/>
		</filter>
		<filter id="filter1_d" filterUnits="userSpaceOnUse" x="-559" y="-11507" width="50" height="55" color-interpolation-filters="sRGB">
			<feFlood flood-opacity="0" result="BackgroundImageFix"/>
			<desc>type="dropShadow" x="0" y="0" size="8" spread="0" color="0,0,0,0.52" blend="normal"</desc>
			<feColorMatrix in="SourceAlpha" type="matrix" values="0 0 0 0 0 0 0 0 0 0 0 0 0 0 0 0 0 0 255 0"/>
			<feOffset dx="0" dy="0"/>
			<feGaussianBlur stdDeviation="4"/>
			<feColorMatrix type="matrix" values="0 0 0 0 0 0 0 0 0 0 0 0 0 0 0 0 0 0 0.52 0"/>
			<feBlend mode="normal" in2="BackgroundImageFix" result="effect1_dropShadow"/>
			<feBlend mode="normal" in="SourceGraphic" in2="effect1_dropShadow" result="shape"/>
		</filter>
		<path id="path0_fill" d="
			M 87 43.5
			C 87 67.5244 67.5244 87 43.5 87
			C 19.4756 87 0 67.5244 0 43.5
			C 0 19.4756 19.4756 0 43.5 0
			C 67.5244 0 87 19.4756 87 43.5
			Z"/>
			<path id="path1_stroke_2x" d="
				M 80 43.5
				C 80 63.6584 63.6584 80 43.5 80
				L 43.5 94
				C 71.3904 94 94 71.3904 94 43.5
				L 80 43.5
				Z
				M 43.5 80
				C 23.3416 80 7 63.6584 7 43.5
				L -7 43.5
				C -7 71.3904 15.6096 94 43.5 94
				L 43.5 80
				Z
				M 7 43.5
				C 7 23.3416 23.3416 7 43.5 7
				L 43.5 -7
				C 15.6096 -7 -7 15.6096 -7 43.5
				L 7 43.5
				Z
				M 43.5 7
				C 63.6584 7 80 23.3416 80 43.5
				L 94 43.5
				C 94 15.6096 71.3904 -7 43.5 -7
				L 43.5 7
				Z"/>
				<path id="path2_fill" d="
					M 21.75 0
					L 40.5861 32.625
					L 2.91395 32.625
					L 21.75 0
					Z"/>
				</defs>
			</svg>
